<svg width="197" height="62" viewBox="0 0 197 62" fill="none" xmlns="http://www.w3.org/2000/svg">
<path d="M10.864 42.16C10.5867 42.16 10.3627 42.1173 10.192 42.032C10.0213 41.968 9.936 41.872 9.936 41.744C9.936 41.5947 10.0213 41.4667 10.192 41.36C10.384 41.232 10.6507 41.1147 10.992 41.008C11.5467 40.8373 12.0587 40.5813 12.528 40.24C12.9973 39.8987 13.4027 39.3333 13.744 38.544C14.3413 37.1787 14.8853 35.8987 15.376 34.704C15.888 33.5093 16.368 32.336 16.816 31.184C17.264 30.032 17.7227 28.8373 18.192 27.6C18.6827 26.3413 19.1947 24.976 19.728 23.504C19.8347 23.2053 19.9307 22.9067 20.016 22.608C20.1013 22.3093 20.1547 21.9893 20.176 21.648C20.368 21.584 20.56 21.52 20.752 21.456C20.944 21.392 21.136 21.296 21.328 21.168C21.52 21.04 21.648 20.848 21.712 20.592C21.7973 20.336 21.872 20.1653 21.936 20.08C21.9573 20.0587 21.9787 20.048 22 20.048C22.0427 20.048 22.0747 20.0693 22.096 20.112C22.1387 20.1973 22.1707 20.304 22.192 20.432C22.2347 20.56 22.2773 20.688 22.32 20.816C22.832 22.4373 23.3653 24.0907 23.92 25.776C24.4747 27.4613 25.008 29.0933 25.52 30.672C26.0533 32.2293 26.5333 33.6373 26.96 34.896C27.408 36.1333 27.76 37.136 28.016 37.904C28.3147 38.7573 28.6347 39.3973 28.976 39.824C29.3173 40.2507 29.6693 40.5493 30.032 40.72C30.416 40.8907 30.8213 41.0187 31.248 41.104C31.6107 41.168 31.8773 41.2747 32.048 41.424C32.2187 41.552 32.304 41.6907 32.304 41.84C32.304 41.968 32.2187 42.0533 32.048 42.096C31.8773 42.1387 31.6533 42.16 31.376 42.16C31.0773 42.16 30.672 42.1387 30.16 42.096C29.648 42.0747 29.104 42.0427 28.528 42C27.952 41.9787 27.4187 41.968 26.928 41.968C26.5227 41.968 26.1067 41.968 25.68 41.968C25.2533 41.968 24.8587 41.9787 24.496 42C24.1333 42 23.824 42 23.568 42C23.2907 42 23.0667 41.968 22.896 41.904C22.7253 41.84 22.64 41.744 22.64 41.616C22.64 41.4667 22.7467 41.3387 22.96 41.232C23.1733 41.1253 23.4187 41.0507 23.696 41.008C24.4 40.9013 24.9013 40.72 25.2 40.464C25.4987 40.208 25.648 39.9093 25.648 39.568C25.648 39.248 25.5733 38.7893 25.424 38.192C25.296 37.5733 25.136 36.9227 24.944 36.24C24.752 35.536 24.5707 34.9173 24.4 34.384C24.3573 34.2133 24.272 34.1173 24.144 34.096C24.0373 34.0533 23.8347 34.032 23.536 34.032H17.488C17.4027 34.032 17.3067 34.0747 17.2 34.16C17.1147 34.224 17.0293 34.3733 16.944 34.608C16.88 34.8213 16.7733 35.1627 16.624 35.632C16.4747 36.08 16.3253 36.56 16.176 37.072C16.0267 37.584 15.8987 38.0427 15.792 38.448C15.6853 38.8533 15.632 39.1093 15.632 39.216C15.632 39.6853 15.8133 40.08 16.176 40.4C16.5387 40.6987 16.976 40.912 17.488 41.04C18.192 41.232 18.544 41.4453 18.544 41.68C18.544 41.808 18.4587 41.904 18.288 41.968C18.1173 42.0107 17.8933 42.032 17.616 42.032C17.3387 42.032 16.9333 42.0213 16.4 42C15.8667 41.9787 15.3013 41.968 14.704 41.968C14 41.968 13.3173 42 12.656 42.064C11.9947 42.128 11.3973 42.16 10.864 42.16ZM18.352 32.976H23.312C23.6107 32.976 23.76 32.9227 23.76 32.816C23.76 32.7733 23.7493 32.7307 23.728 32.688C23.728 32.624 23.7173 32.56 23.696 32.496L21.2 24.688C21.072 24.304 20.976 24.112 20.912 24.112C20.8693 24.112 20.784 24.2933 20.656 24.656L17.744 32.496C17.7013 32.624 17.68 32.7093 17.68 32.752C17.68 32.8587 17.7333 32.9227 17.84 32.944C17.968 32.9653 18.1387 32.976 18.352 32.976ZM33.6923 42.16C33.4149 42.16 33.1909 42.128 33.0203 42.064C32.8496 42.0213 32.7643 41.936 32.7643 41.808C32.7643 41.552 33.1163 41.36 33.8203 41.232C34.6309 41.0827 35.2496 40.8373 35.6763 40.496C36.1029 40.1547 36.3163 39.6 36.3163 38.832V24.432C36.3163 23.664 36.1563 23.0987 35.8363 22.736C35.5163 22.3733 34.9616 22.16 34.1723 22.096C33.8096 22.0533 33.5429 21.9787 33.3723 21.872C33.2016 21.744 33.1163 21.6053 33.1163 21.456C33.1163 21.328 33.2016 21.2427 33.3723 21.2C33.5429 21.136 33.7669 21.104 34.0443 21.104C34.6203 21.104 35.0683 21.104 35.3883 21.104C35.7083 21.104 36.0069 21.1147 36.2843 21.136C36.5829 21.136 36.9456 21.136 37.3723 21.136C37.7776 21.136 38.1296 21.1253 38.4283 21.104C38.7269 21.0613 39.0576 21.0293 39.4203 21.008C39.8043 20.9867 40.3056 20.976 40.9243 20.976C43.4203 20.976 45.2763 21.3387 46.4923 22.064C47.7296 22.768 48.3483 23.9947 48.3483 25.744C48.3483 26.4693 48.2203 27.1093 47.9643 27.664C47.7296 28.1973 47.4949 28.5813 47.2603 28.816C46.9189 29.1573 46.6096 29.424 46.3323 29.616C46.0549 29.7867 45.6496 29.9787 45.1163 30.192C45.0309 30.2133 44.9883 30.2667 44.9883 30.352C44.9883 30.416 45.0309 30.4693 45.1163 30.512C45.6069 30.6613 46.1083 30.8533 46.6203 31.088C47.1536 31.3227 47.6443 31.632 48.0923 32.016C48.5616 32.3787 48.9349 32.8693 49.2123 33.488C49.5109 34.0853 49.6603 34.8533 49.6603 35.792C49.6603 36.9653 49.4683 37.8933 49.0843 38.576C48.7216 39.2587 48.2843 39.7813 47.7723 40.144C47.2603 40.5067 46.7803 40.8053 46.3323 41.04C45.6709 41.3813 44.9029 41.648 44.0283 41.84C43.1536 42.032 42.1083 42.128 40.8923 42.128C40.6149 42.128 40.1989 42.1067 39.6443 42.064C39.0896 42.0213 38.4923 42 37.8523 42C37.2976 42 36.8283 42.0107 36.4443 42.032C36.0603 42.0533 35.6549 42.0747 35.2283 42.096C34.8229 42.1387 34.3109 42.16 33.6923 42.16ZM41.3403 40.816C42.2789 40.816 43.1536 40.6027 43.9643 40.176C44.7749 39.7493 45.4256 39.1733 45.9163 38.448C46.4069 37.7013 46.6523 36.8693 46.6523 35.952C46.6523 35.12 46.5136 34.4373 46.2363 33.904C45.9589 33.3493 45.6389 32.9013 45.2763 32.56C44.9136 32.2187 44.5829 31.9733 44.2843 31.824C44.0069 31.6533 43.5696 31.4827 42.9723 31.312C42.3749 31.12 41.5963 31.024 40.6363 31.024C39.9536 31.024 39.4736 31.1627 39.1963 31.44C38.9403 31.7173 38.8123 31.9627 38.8123 32.176V38.544C38.8123 39.44 39.0256 40.048 39.4523 40.368C39.9003 40.6667 40.5296 40.816 41.3403 40.816ZM40.2843 30.128C40.8603 30.128 41.4789 30.064 42.1403 29.936C42.8229 29.808 43.4949 29.5627 44.1563 29.2C44.3909 29.072 44.6896 28.7627 45.0523 28.272C45.4149 27.7813 45.5963 27.0773 45.5963 26.16C45.5963 25.5413 45.4789 24.912 45.2443 24.272C45.0096 23.6107 44.5616 23.056 43.9003 22.608C43.2389 22.16 42.2469 21.936 40.9243 21.936C40.0496 21.936 39.4736 22.0533 39.1963 22.288C38.9403 22.5227 38.8123 22.8853 38.8123 23.376V28.944C38.8123 29.4987 38.9936 29.84 39.3563 29.968C39.7189 30.0747 40.0283 30.128 40.2843 30.128ZM52.4735 42.16C52.1962 42.16 51.9722 42.128 51.8015 42.064C51.6308 42.0213 51.5455 41.936 51.5455 41.808C51.5455 41.552 51.8975 41.36 52.6015 41.232C53.4122 41.0827 54.0308 40.8373 54.4575 40.496C54.8842 40.1547 55.0975 39.6 55.0975 38.832V24.432C55.0975 23.664 54.9375 23.0987 54.6175 22.736C54.2975 22.3733 53.7428 22.16 52.9535 22.096C52.5908 22.0533 52.3242 21.9787 52.1535 21.872C51.9828 21.744 51.8975 21.6053 51.8975 21.456C51.8975 21.328 51.9828 21.2427 52.1535 21.2C52.3242 21.136 52.5482 21.104 52.8255 21.104C53.4015 21.104 53.8495 21.104 54.1695 21.104C54.4895 21.104 54.7882 21.1147 55.0655 21.136C55.3642 21.136 55.7268 21.136 56.1535 21.136C56.5588 21.136 56.9108 21.1253 57.2095 21.104C57.5082 21.0613 57.8388 21.0293 58.2015 21.008C58.5855 20.9867 59.0868 20.976 59.7055 20.976C62.2015 20.976 64.0575 21.3387 65.2735 22.064C66.5108 22.768 67.1295 23.9947 67.1295 25.744C67.1295 26.4693 67.0015 27.1093 66.7455 27.664C66.5108 28.1973 66.2762 28.5813 66.0415 28.816C65.7002 29.1573 65.3908 29.424 65.1135 29.616C64.8362 29.7867 64.4308 29.9787 63.8975 30.192C63.8122 30.2133 63.7695 30.2667 63.7695 30.352C63.7695 30.416 63.8122 30.4693 63.8975 30.512C64.3882 30.6613 64.8895 30.8533 65.4015 31.088C65.9348 31.3227 66.4255 31.632 66.8735 32.016C67.3428 32.3787 67.7162 32.8693 67.9935 33.488C68.2922 34.0853 68.4415 34.8533 68.4415 35.792C68.4415 36.9653 68.2495 37.8933 67.8655 38.576C67.5028 39.2587 67.0655 39.7813 66.5535 40.144C66.0415 40.5067 65.5615 40.8053 65.1135 41.04C64.4522 41.3813 63.6842 41.648 62.8095 41.84C61.9348 42.032 60.8895 42.128 59.6735 42.128C59.3962 42.128 58.9802 42.1067 58.4255 42.064C57.8708 42.0213 57.2735 42 56.6335 42C56.0788 42 55.6095 42.0107 55.2255 42.032C54.8415 42.0533 54.4362 42.0747 54.0095 42.096C53.6042 42.1387 53.0922 42.16 52.4735 42.16ZM60.1215 40.816C61.0602 40.816 61.9348 40.6027 62.7455 40.176C63.5562 39.7493 64.2068 39.1733 64.6975 38.448C65.1882 37.7013 65.4335 36.8693 65.4335 35.952C65.4335 35.12 65.2948 34.4373 65.0175 33.904C64.7402 33.3493 64.4202 32.9013 64.0575 32.56C63.6948 32.2187 63.3642 31.9733 63.0655 31.824C62.7882 31.6533 62.3508 31.4827 61.7535 31.312C61.1562 31.12 60.3775 31.024 59.4175 31.024C58.7348 31.024 58.2548 31.1627 57.9775 31.44C57.7215 31.7173 57.5935 31.9627 57.5935 32.176V38.544C57.5935 39.44 57.8068 40.048 58.2335 40.368C58.6815 40.6667 59.3108 40.816 60.1215 40.816ZM59.0655 30.128C59.6415 30.128 60.2602 30.064 60.9215 29.936C61.6042 29.808 62.2762 29.5627 62.9375 29.2C63.1722 29.072 63.4708 28.7627 63.8335 28.272C64.1962 27.7813 64.3775 27.0773 64.3775 26.16C64.3775 25.5413 64.2602 24.912 64.0255 24.272C63.7908 23.6107 63.3428 23.056 62.6815 22.608C62.0202 22.16 61.0282 21.936 59.7055 21.936C58.8308 21.936 58.2548 22.0533 57.9775 22.288C57.7215 22.5227 57.5935 22.8853 57.5935 23.376V28.944C57.5935 29.4987 57.7748 29.84 58.1375 29.968C58.5002 30.0747 58.8095 30.128 59.0655 30.128ZM74.9178 42.16C74.6404 42.16 74.4164 42.128 74.2458 42.064C74.0751 42.0213 73.9898 41.936 73.9898 41.808C73.9898 41.6587 74.0751 41.5413 74.2458 41.456C74.4164 41.3707 74.6831 41.296 75.0458 41.232C75.8564 41.0827 76.4751 40.7947 76.9018 40.368C77.3284 39.92 77.5417 39.312 77.5417 38.544V33.808C77.5417 33.3813 77.4244 32.9227 77.1898 32.432C76.9764 31.92 76.8271 31.5893 76.7418 31.44L72.9978 25.296C72.8484 25.04 72.6138 24.688 72.2938 24.24C71.9738 23.7707 71.6218 23.3333 71.2378 22.928C70.8751 22.5227 70.5124 22.2667 70.1497 22.16C69.8084 22.0533 69.5418 21.9467 69.3498 21.84C69.1791 21.7333 69.0938 21.6053 69.0938 21.456C69.0938 21.328 69.1791 21.2427 69.3498 21.2C69.5204 21.136 69.7444 21.104 70.0218 21.104C70.5124 21.104 71.0778 21.1253 71.7178 21.168C72.3578 21.1893 73.0404 21.2 73.7658 21.2C74.2564 21.2 74.7151 21.1893 75.1418 21.168C75.5898 21.1467 75.9844 21.136 76.3258 21.136C76.6031 21.136 76.8271 21.168 76.9978 21.232C77.1684 21.2747 77.2538 21.36 77.2538 21.488C77.2538 21.6373 77.1684 21.7653 76.9978 21.872C76.8271 21.9573 76.5604 22.0427 76.1978 22.128C75.8991 22.2133 75.6538 22.3093 75.4618 22.416C75.2698 22.5227 75.1738 22.6933 75.1738 22.928C75.1738 23.2053 75.3124 23.5893 75.5898 24.08L78.5338 29.52C78.9604 30.3307 79.2591 30.736 79.4298 30.736C79.5578 30.736 79.6964 30.6507 79.8458 30.48C79.9951 30.288 80.2084 29.968 80.4858 29.52C80.9764 28.7733 81.4138 28.0587 81.7978 27.376C82.1818 26.6933 82.6404 25.872 83.1738 24.912C83.3871 24.5493 83.5364 24.24 83.6218 23.984C83.7071 23.7067 83.7498 23.472 83.7498 23.28C83.7498 22.8747 83.6004 22.5973 83.3018 22.448C83.0244 22.2987 82.7364 22.2027 82.4378 22.16C82.2244 22.1173 81.9898 22.0427 81.7338 21.936C81.4991 21.808 81.3818 21.6693 81.3818 21.52C81.3818 21.392 81.4671 21.3067 81.6378 21.264C81.8084 21.2 82.0324 21.168 82.3098 21.168C82.8004 21.168 83.2058 21.1787 83.5258 21.2C83.8458 21.2 84.2404 21.2 84.7098 21.2C85.3711 21.2 86.0004 21.1893 86.5978 21.168C87.1951 21.1253 87.6751 21.104 88.0378 21.104C88.3151 21.104 88.5391 21.136 88.7098 21.2C88.8804 21.2427 88.9658 21.328 88.9658 21.456C88.9658 21.6053 88.7951 21.744 88.4538 21.872C88.1124 22 87.7178 22.128 87.2698 22.256C86.7151 22.4053 86.2458 22.7147 85.8618 23.184C85.4991 23.632 85.0298 24.2933 84.4538 25.168C84.0271 25.8293 83.6644 26.384 83.3658 26.832C83.0884 27.28 82.8218 27.696 82.5658 28.08C82.3311 28.464 82.0858 28.8693 81.8298 29.296C81.5738 29.7013 81.2644 30.2027 80.9018 30.8C80.6244 31.248 80.4324 31.6107 80.3258 31.888C80.2191 32.1653 80.1551 32.432 80.1338 32.688C80.1124 32.9227 80.1018 33.2533 80.1018 33.68V38.544C80.1018 39.2693 80.3258 39.8667 80.7738 40.336C81.2218 40.784 81.8404 41.0827 82.6298 41.232C82.9924 41.296 83.2591 41.3707 83.4298 41.456C83.6004 41.5413 83.6858 41.6587 83.6858 41.808C83.6858 41.936 83.6004 42.0213 83.4298 42.064C83.2591 42.128 83.0351 42.16 82.7578 42.16C82.1818 42.16 81.7018 42.1387 81.3178 42.096C80.9551 42.0747 80.6031 42.0533 80.2618 42.032C79.9204 42.0107 79.5044 42 79.0138 42C78.4804 42 78.0111 42.0107 77.6058 42.032C77.2218 42.0533 76.8164 42.0747 76.3898 42.096C75.9844 42.1387 75.4938 42.16 74.9178 42.16ZM107.024 42.48C105.531 42.48 104.091 42.224 102.704 41.712C101.317 41.2 100.08 40.4747 98.992 39.536C97.904 38.576 97.04 37.4347 96.4 36.112C95.7813 34.768 95.472 33.2853 95.472 31.664C95.472 30.1067 95.8027 28.6667 96.464 27.344C97.1253 26.0213 98.032 24.8693 99.184 23.888C100.336 22.9067 101.648 22.1493 103.12 21.616C104.613 21.0613 106.181 20.784 107.824 20.784C108.656 20.784 109.36 20.816 109.936 20.88C110.512 20.944 111.067 21.04 111.6 21.168C112.155 21.2747 112.795 21.424 113.52 21.616C113.84 21.7013 114.064 21.8293 114.192 22C114.341 22.1707 114.427 22.4053 114.448 22.704C114.491 23.1947 114.544 23.728 114.608 24.304C114.672 24.8587 114.715 25.552 114.736 26.384C114.757 26.5333 114.683 26.6613 114.512 26.768C114.363 26.8533 114.192 26.8747 114 26.832C113.829 26.7893 113.712 26.6507 113.648 26.416C113.435 25.6053 113.189 24.912 112.912 24.336C112.635 23.7387 112.219 23.248 111.664 22.864C111.131 22.5013 110.48 22.2347 109.712 22.064C108.965 21.872 108.155 21.776 107.28 21.776C106.043 21.776 104.891 22.032 103.824 22.544C102.779 23.0347 101.872 23.7173 101.104 24.592C100.357 25.4453 99.7707 26.416 99.344 27.504C98.9173 28.592 98.704 29.7227 98.704 30.896C98.704 32.1973 98.9067 33.4773 99.312 34.736C99.7387 35.9947 100.336 37.136 101.104 38.16C101.893 39.1627 102.821 39.9733 103.888 40.592C104.976 41.1893 106.181 41.488 107.504 41.488C109.04 41.488 110.309 41.136 111.312 40.432C112.315 39.728 113.168 38.7467 113.872 37.488C114.021 37.2107 114.235 37.072 114.512 37.072C114.811 37.072 114.96 37.2427 114.96 37.584C114.96 37.7547 114.917 38.032 114.832 38.416C114.747 38.7787 114.629 39.1733 114.48 39.6C114.352 40.0053 114.224 40.368 114.096 40.688C113.947 40.9867 113.819 41.1787 113.712 41.264C113.627 41.3493 113.413 41.4453 113.072 41.552C112.283 41.872 111.333 42.1067 110.224 42.256C109.136 42.4053 108.069 42.48 107.024 42.48ZM118.831 42.16C118.553 42.16 118.329 42.1173 118.159 42.032C117.988 41.968 117.903 41.872 117.903 41.744C117.903 41.5307 118.244 41.36 118.927 41.232C119.737 41.0827 120.26 40.8373 120.495 40.496C120.751 40.1547 120.879 39.6 120.879 38.832V24.368C120.879 23.6213 120.793 23.0987 120.623 22.8C120.473 22.48 119.993 22.2453 119.183 22.096C118.479 21.968 118.127 21.776 118.127 21.52C118.127 21.392 118.201 21.296 118.351 21.232C118.5 21.1467 118.735 21.104 119.055 21.104C119.631 21.104 120.079 21.1147 120.399 21.136C120.719 21.1573 121.017 21.1787 121.295 21.2C121.572 21.2 121.924 21.2 122.351 21.2C122.799 21.2 123.161 21.2 123.439 21.2C123.737 21.1787 124.047 21.1573 124.367 21.136C124.708 21.1147 125.167 21.104 125.743 21.104C126.361 21.104 126.671 21.2427 126.671 21.52C126.671 21.6693 126.585 21.7867 126.415 21.872C126.244 21.9573 125.977 22.032 125.615 22.096C124.825 22.2453 124.26 22.512 123.919 22.896C123.599 23.2587 123.439 23.7493 123.439 24.368V30.672C123.439 30.8 123.492 30.8853 123.599 30.928C123.705 30.9493 123.801 30.96 123.887 30.96H135.759C135.908 30.96 135.983 30.832 135.983 30.576V24.336C135.983 23.76 135.833 23.28 135.535 22.896C135.236 22.512 134.681 22.2453 133.871 22.096C133.508 22.032 133.241 21.9573 133.071 21.872C132.9 21.7867 132.815 21.6693 132.815 21.52C132.815 21.2427 133.124 21.104 133.743 21.104C134.319 21.104 134.788 21.1147 135.151 21.136C135.535 21.1573 135.897 21.1787 136.239 21.2C136.58 21.2 136.985 21.2 137.455 21.2C137.839 21.2 138.137 21.2 138.351 21.2C138.564 21.1787 138.809 21.1573 139.087 21.136C139.364 21.1147 139.791 21.104 140.367 21.104C140.665 21.104 140.889 21.1467 141.039 21.232C141.209 21.296 141.295 21.392 141.295 21.52C141.295 21.776 140.943 21.968 140.239 22.096C139.449 22.2453 138.969 22.5013 138.799 22.864C138.628 23.2267 138.543 23.7173 138.543 24.336V38.8C138.543 39.5893 138.639 40.1547 138.831 40.496C139.044 40.8373 139.545 41.0827 140.335 41.232C141.017 41.36 141.359 41.5307 141.359 41.744C141.359 41.872 141.273 41.968 141.103 42.032C140.932 42.1173 140.708 42.16 140.431 42.16C139.855 42.16 139.407 42.1387 139.087 42.096C138.767 42.0747 138.468 42.0533 138.191 42.032C137.913 42.0107 137.551 42 137.103 42C136.655 42 136.281 42.0107 135.983 42.032C135.705 42.0533 135.396 42.0747 135.055 42.096C134.713 42.1387 134.255 42.16 133.679 42.16C133.401 42.16 133.177 42.1173 133.007 42.032C132.836 41.968 132.751 41.872 132.751 41.744C132.751 41.5947 132.825 41.488 132.975 41.424C133.145 41.36 133.412 41.296 133.775 41.232C134.457 41.104 134.991 40.8587 135.375 40.496C135.78 40.112 135.983 39.5787 135.983 38.896V32.656C135.983 32.5493 135.983 32.4427 135.983 32.336C135.983 32.2293 135.929 32.176 135.823 32.176H123.599C123.492 32.176 123.439 32.2933 123.439 32.528V38.608C123.439 39.2693 123.684 39.8453 124.175 40.336C124.665 40.8053 125.273 41.104 125.999 41.232C126.361 41.296 126.617 41.36 126.767 41.424C126.937 41.488 127.023 41.5947 127.023 41.744C127.023 41.872 126.937 41.968 126.767 42.032C126.596 42.1173 126.372 42.16 126.095 42.16C125.519 42.16 125.039 42.1387 124.655 42.096C124.292 42.0747 123.94 42.0533 123.599 42.032C123.257 42.0107 122.841 42 122.351 42C121.903 42 121.519 42.0107 121.199 42.032C120.9 42.0533 120.569 42.0747 120.207 42.096C119.865 42.1387 119.407 42.16 118.831 42.16ZM144.737 42.16C144.46 42.16 144.236 42.128 144.065 42.064C143.894 42.0213 143.809 41.936 143.809 41.808C143.809 41.552 144.161 41.36 144.865 41.232C145.676 41.0827 146.273 40.8373 146.657 40.496C147.041 40.1547 147.233 39.6 147.233 38.832V24.432C147.233 23.664 147.073 23.12 146.753 22.8C146.454 22.48 145.9 22.2453 145.089 22.096C144.726 22.032 144.46 21.9467 144.289 21.84C144.118 21.7333 144.033 21.6053 144.033 21.456C144.033 21.328 144.118 21.2427 144.289 21.2C144.46 21.136 144.684 21.104 144.961 21.104C145.772 21.104 146.454 21.1147 147.009 21.136C147.585 21.1573 148.14 21.1787 148.673 21.2C149.228 21.2 149.878 21.2 150.625 21.2C151.329 21.2 152.065 21.2 152.833 21.2C153.622 21.1787 154.348 21.168 155.009 21.168C155.734 21.1467 156.342 21.136 156.833 21.136C157.345 21.1147 157.644 21.104 157.729 21.104C157.836 21.104 157.953 21.1253 158.081 21.168C158.209 21.2107 158.284 21.2853 158.305 21.392C158.412 21.9893 158.518 22.5867 158.625 23.184C158.732 23.76 158.785 24.2613 158.785 24.688C158.785 24.88 158.732 25.008 158.625 25.072C158.54 25.136 158.444 25.168 158.337 25.168C158.23 25.168 158.156 25.1467 158.113 25.104C158.07 25.04 158.028 24.9547 157.985 24.848C157.878 24.4853 157.772 24.144 157.665 23.824C157.558 23.4827 157.43 23.2373 157.281 23.088C156.982 22.7467 156.652 22.5227 156.289 22.416C155.926 22.288 155.542 22.224 155.137 22.224H150.945C150.774 22.224 150.54 22.32 150.241 22.512C149.942 22.704 149.793 22.9493 149.793 23.248V30.032C149.793 30.224 149.846 30.3947 149.953 30.544C150.081 30.672 150.22 30.736 150.369 30.736H153.537C154.156 30.736 154.582 30.6293 154.817 30.416C155.052 30.1813 155.244 29.7653 155.393 29.168C155.521 28.6987 155.713 28.464 155.969 28.464C156.054 28.464 156.14 28.5067 156.225 28.592C156.332 28.6773 156.385 28.8053 156.385 28.976C156.385 29.0613 156.374 29.2533 156.353 29.552C156.353 29.8507 156.342 30.16 156.321 30.48C156.3 30.8 156.289 31.0453 156.289 31.216C156.289 31.4293 156.289 31.7173 156.289 32.08C156.31 32.4213 156.321 32.752 156.321 33.072C156.342 33.392 156.353 33.5947 156.353 33.68C156.353 33.8293 156.332 33.9573 156.289 34.064C156.268 34.1707 156.193 34.224 156.065 34.224C155.745 34.224 155.5 33.8827 155.329 33.2C155.201 32.7093 155.03 32.3467 154.817 32.112C154.604 31.8773 154.284 31.76 153.857 31.76H150.881C150.518 31.76 150.241 31.8133 150.049 31.92C149.878 32.0053 149.793 32.2293 149.793 32.592V38.736C149.793 39.5467 149.964 40.112 150.305 40.432C150.646 40.7307 151.18 40.88 151.905 40.88H154.273C154.956 40.88 155.521 40.848 155.969 40.784C156.438 40.6987 156.844 40.5493 157.185 40.336C157.526 40.1013 157.825 39.792 158.081 39.408C158.358 39.024 158.668 38.512 159.009 37.872C159.073 37.744 159.148 37.6373 159.233 37.552C159.318 37.4667 159.414 37.4347 159.521 37.456C159.628 37.4773 159.713 37.5307 159.777 37.616C159.841 37.68 159.873 37.776 159.873 37.904C159.873 38.096 159.82 38.4373 159.713 38.928C159.606 39.3973 159.468 39.888 159.297 40.4C159.148 40.912 159.009 41.3173 158.881 41.616C158.817 41.7653 158.753 41.8933 158.689 42C158.646 42.1067 158.561 42.16 158.433 42.16C157.409 42.16 156.46 42.1493 155.585 42.128C154.71 42.1067 153.878 42.0853 153.089 42.064C152.3 42.0427 151.521 42.0213 150.753 42C150.006 41.9787 149.228 41.968 148.417 41.968C147.948 41.968 147.542 41.9787 147.201 42C146.86 42.0427 146.508 42.0747 146.145 42.096C145.782 42.1387 145.313 42.16 144.737 42.16ZM182.064 42.544C181.872 42.544 181.488 42.384 180.912 42.064C180.357 41.744 179.824 41.232 179.312 40.528C179.226 40.4213 178.96 40.1013 178.512 39.568C178.085 39.0347 177.53 38.3733 176.847 37.584C176.186 36.7733 175.461 35.8987 174.672 34.96C173.882 34.0213 173.093 33.0827 172.304 32.144C171.514 31.2053 170.778 30.3413 170.095 29.552C169.413 28.7413 168.837 28.0693 168.368 27.536C167.92 26.9813 167.642 26.64 167.536 26.512C167.386 26.32 167.258 26.192 167.152 26.128C167.045 26.0427 166.949 26 166.864 26C166.757 26 166.682 26.0853 166.64 26.256C166.597 26.4053 166.576 26.544 166.576 26.672C166.554 27.7173 166.533 28.9227 166.512 30.288C166.49 31.6533 166.469 33.0613 166.448 34.512C166.426 35.9627 166.416 37.3493 166.416 38.672C166.416 39.248 166.554 39.7813 166.832 40.272C167.13 40.7627 167.674 41.0827 168.464 41.232C168.826 41.296 169.093 41.3707 169.264 41.456C169.434 41.5413 169.52 41.6587 169.52 41.808C169.52 41.936 169.434 42.0213 169.264 42.064C169.093 42.128 168.869 42.16 168.592 42.16C168.016 42.16 167.578 42.1387 167.28 42.096C167.002 42.0747 166.746 42.0533 166.512 42.032C166.298 42.0107 165.989 42 165.584 42C165.2 42 164.901 42.0107 164.688 42.032C164.474 42.0533 164.229 42.0747 163.952 42.096C163.674 42.1387 163.248 42.16 162.672 42.16C162.394 42.16 162.17 42.128 162 42.064C161.829 42.0213 161.743 41.936 161.743 41.808C161.743 41.6587 161.829 41.5413 162 41.456C162.17 41.3707 162.437 41.2853 162.799 41.2C163.418 41.0293 163.866 40.72 164.144 40.272C164.421 39.8027 164.592 39.2373 164.656 38.576C164.741 37.7653 164.826 36.6987 164.911 35.376C164.997 34.032 165.072 32.5387 165.136 30.896C165.2 29.232 165.232 27.5253 165.232 25.776C165.232 24.6453 164.933 23.8347 164.336 23.344C163.76 22.8533 163.002 22.4587 162.064 22.16C161.978 22.1173 161.786 22.032 161.488 21.904C161.21 21.7547 161.072 21.584 161.072 21.392C161.072 21.2 161.168 21.0827 161.36 21.04C161.552 20.976 161.701 20.944 161.808 20.944C162.426 20.9653 162.928 20.9867 163.312 21.008C163.696 21.008 164.037 21.0187 164.336 21.04C164.634 21.0613 164.965 21.0827 165.328 21.104C165.69 21.104 166.16 21.104 166.736 21.104C166.928 21.104 167.077 21.1573 167.184 21.264C167.29 21.3707 167.397 21.4987 167.504 21.648C167.589 21.776 167.866 22.1387 168.336 22.736C168.826 23.312 169.424 24.048 170.128 24.944C170.853 25.8187 171.642 26.7787 172.496 27.824C173.349 28.848 174.202 29.8827 175.056 30.928C175.909 31.952 176.698 32.912 177.424 33.808C178.149 34.6827 178.746 35.408 179.216 35.984C179.706 36.56 179.994 36.9013 180.08 37.008C180.165 37.0933 180.282 37.2213 180.432 37.392C180.602 37.5627 180.752 37.648 180.88 37.648C181.072 37.648 181.178 37.424 181.2 36.976C181.2 36.6773 181.2 36.112 181.2 35.28C181.221 34.4267 181.232 33.4027 181.232 32.208C181.253 30.992 181.264 29.68 181.264 28.272C181.264 26.864 181.264 25.424 181.264 23.952C181.242 23.5253 181.018 23.1413 180.592 22.8C180.165 22.4587 179.77 22.256 179.408 22.192C179.045 22.128 178.714 22.0427 178.416 21.936C178.117 21.8293 177.968 21.7013 177.968 21.552C177.968 21.424 178.117 21.3387 178.416 21.296C178.714 21.232 179.002 21.2 179.28 21.2C179.493 21.2 179.696 21.2 179.888 21.2C180.101 21.2 180.304 21.2 180.496 21.2C180.709 21.2 180.912 21.2 181.104 21.2C181.616 21.2 182.021 21.2 182.32 21.2C182.618 21.1787 182.938 21.1573 183.28 21.136C183.642 21.1147 184.144 21.104 184.784 21.104C185.061 21.104 185.285 21.136 185.456 21.2C185.626 21.2427 185.712 21.328 185.712 21.456C185.712 21.7547 185.36 21.968 184.656 22.096C183.866 22.2453 183.344 22.4373 183.088 22.672C182.832 22.9067 182.682 23.2907 182.64 23.824C182.64 23.9307 182.629 24.3467 182.608 25.072C182.608 25.7973 182.608 26.7147 182.608 27.824C182.608 28.9333 182.597 30.128 182.576 31.408C182.576 32.688 182.576 33.968 182.576 35.248C182.576 36.5067 182.576 37.6373 182.576 38.64C182.576 39.152 182.586 39.6213 182.608 40.048C182.65 40.4533 182.682 40.8053 182.704 41.104C182.725 41.3813 182.736 41.5947 182.736 41.744C182.736 42.0853 182.661 42.2987 182.512 42.384C182.384 42.4907 182.234 42.544 182.064 42.544Z" fill="white"/>
</svg>
